<?xml version="1.0" encoding="UTF-8" standalone="no"?> <!-- Created with Inkscape (http://www.inkscape.org/) --> <svg xmlns:inkscape="http://www.inkscape.org/namespaces/inkscape" xmlns:rdf="http://www.w3.org/1999/02/22-rdf-syntax-ns#" xmlns="http://www.w3.org/2000/svg" xmlns:sodipodi="http://sodipodi.sourceforge.net/DTD/sodipodi-0.dtd" xmlns:i="http://ns.adobe.com/AdobeIllustrator/10.0/" xmlns:cc="http://creativecommons.org/ns#" xmlns:xlink="http://www.w3.org/1999/xlink" xmlns:dc="http://purl.org/dc/elements/1.1/" xmlns:svg="http://www.w3.org/2000/svg" xmlns:ns1="http://sozi.baierouge.fr" id="svg2" sodipodi:docname="eco_systemedic_01_square.svg" viewBox="0 0 610 610" inkscape:version="0.47 r22583"><g id="layer4" inkscape:label="llayer" inkscape:groupmode="layer" transform="translate(5 -397.36)"><g id="g6483"><rect id="rect5840" style="stroke-linejoin:round;stroke:#44aa00;stroke-width:10;fill:none" ry="1.5381" height="600" width="600" y="402.36" x="0"></rect><g id="g5706" transform="matrix(6.7369 0 0 6.7369 -4166.7 -1830.7)"><path id="path5670" style="fill:#44aa00" transform="translate(454.98 298.49)" d="m230.04 68.045c1.8466 5.9163 15.955 13.443 13.971 19.315-1.9836 5.8718-17.766 3.301-22.822 6.8855-5.0561 3.5845-7.8546 19.328-14.052 19.256s-8.6293-15.876-13.601-19.577c-4.9715-3.701-20.809-1.4976-22.656-7.4139-1.8466-5.9163 12.432-13.113 14.416-18.985 1.9836-5.8718-5.006-20.253 0.0501-23.838 5.0561-3.5845 16.313 7.7718 22.51 7.8438 6.1974 0.07201 17.715-11.02 22.686-7.3186 4.9715 3.701-2.3504 17.916-0.5038 23.832z"></path><path id="path5515-0" sodipodi:nodetypes="cc" style="stroke:#ffffff;stroke-linecap:round;stroke-width:1px;fill:none" d="m657.76 402.88s4.0818 2.0889 9.7938-1.7822"></path><path id="path5698" sodipodi:nodetypes="cc" style="stroke:#ffffff;stroke-linecap:round;stroke-width:1px;fill:none" d="m688.19 387.62s3.816-2.5421 3.2269-9.4171"></path><path id="path5700" sodipodi:nodetypes="cc" style="stroke:#ffffff;stroke-linecap:round;stroke-width:1px;fill:none" d="m648.63 346.33s-4.493 0.91483-6.5409 7.5041"></path><path id="path5702" sodipodi:nodetypes="cc" style="stroke:#ffffff;stroke-linecap:round;stroke-width:1px;fill:none" d="m684.54 353.09s-0.64926-4.539-7.1068-6.9705"></path><path id="path5704" sodipodi:nodetypes="cc" style="stroke:#ffffff;stroke-linecap:round;stroke-width:1px;fill:none" d="m631.36 379.28s-0.31317 4.5745 5.4941 8.3012"></path></g></g></g><metadata></metadata></svg> 